<mxfile host="Electron" modified="2023-07-04T02:44:14.625Z" agent="Mozilla/5.0 (Macintosh; Intel Mac OS X 10_15_7) AppleWebKit/537.36 (KHTML, like Gecko) draw.io/21.5.1 Chrome/112.0.5615.204 Electron/24.6.0 Safari/537.36" etag="1_D76S4T2iA35DyxoAxs" version="21.5.1" type="device">
  <diagram name="페이지-1" id="dy39ruGdzpcFO4FTHmxY">
    <mxGraphModel dx="1302" dy="816" grid="1" gridSize="10" guides="1" tooltips="1" connect="1" arrows="1" fold="1" page="1" pageScale="1" pageWidth="827" pageHeight="1169" math="0" shadow="0">
      <root>
        <mxCell id="0" />
        <mxCell id="1" parent="0" />
        <mxCell id="A4gkqVWS3hdwCxU_2lMh-1" value="" style="endArrow=classic;html=1;rounded=0;entryX=0;entryY=0.5;entryDx=0;entryDy=0;" edge="1" parent="1" target="A4gkqVWS3hdwCxU_2lMh-3">
          <mxGeometry width="50" height="50" relative="1" as="geometry">
            <mxPoint x="80" y="400" as="sourcePoint" />
            <mxPoint x="160" y="400" as="targetPoint" />
          </mxGeometry>
        </mxCell>
        <mxCell id="A4gkqVWS3hdwCxU_2lMh-2" value="Request" style="text;html=1;strokeColor=none;fillColor=none;align=center;verticalAlign=middle;whiteSpace=wrap;rounded=0;" vertex="1" parent="1">
          <mxGeometry x="80" y="380" width="60" height="20" as="geometry" />
        </mxCell>
        <mxCell id="A4gkqVWS3hdwCxU_2lMh-5" value="" style="edgeStyle=orthogonalEdgeStyle;rounded=0;orthogonalLoop=1;jettySize=auto;html=1;" edge="1" parent="1" source="A4gkqVWS3hdwCxU_2lMh-3" target="A4gkqVWS3hdwCxU_2lMh-4">
          <mxGeometry relative="1" as="geometry" />
        </mxCell>
        <mxCell id="A4gkqVWS3hdwCxU_2lMh-3" value="Tomcat" style="rounded=0;whiteSpace=wrap;html=1;fontStyle=1;fontSize=20;fillColor=#CCE5FF;" vertex="1" parent="1">
          <mxGeometry x="160" y="370" width="120" height="60" as="geometry" />
        </mxCell>
        <mxCell id="A4gkqVWS3hdwCxU_2lMh-7" value="" style="edgeStyle=orthogonalEdgeStyle;rounded=0;orthogonalLoop=1;jettySize=auto;html=1;" edge="1" parent="1" source="A4gkqVWS3hdwCxU_2lMh-4" target="A4gkqVWS3hdwCxU_2lMh-6">
          <mxGeometry relative="1" as="geometry" />
        </mxCell>
        <mxCell id="A4gkqVWS3hdwCxU_2lMh-4" value="Filter" style="rounded=0;whiteSpace=wrap;html=1;fontStyle=1;fontSize=20;fillColor=#CCE5FF;" vertex="1" parent="1">
          <mxGeometry x="320" y="370" width="120" height="60" as="geometry" />
        </mxCell>
        <mxCell id="A4gkqVWS3hdwCxU_2lMh-9" value="" style="edgeStyle=orthogonalEdgeStyle;rounded=0;orthogonalLoop=1;jettySize=auto;html=1;" edge="1" parent="1" source="A4gkqVWS3hdwCxU_2lMh-6" target="A4gkqVWS3hdwCxU_2lMh-8">
          <mxGeometry relative="1" as="geometry" />
        </mxCell>
        <mxCell id="A4gkqVWS3hdwCxU_2lMh-6" value="DispatcherServlet" style="rounded=0;whiteSpace=wrap;html=1;fontStyle=1;fontSize=20;fillColor=#CCE5FF;" vertex="1" parent="1">
          <mxGeometry x="480" y="370" width="200" height="60" as="geometry" />
        </mxCell>
        <mxCell id="A4gkqVWS3hdwCxU_2lMh-11" value="" style="edgeStyle=orthogonalEdgeStyle;rounded=0;orthogonalLoop=1;jettySize=auto;html=1;" edge="1" parent="1" source="A4gkqVWS3hdwCxU_2lMh-8" target="A4gkqVWS3hdwCxU_2lMh-10">
          <mxGeometry relative="1" as="geometry" />
        </mxCell>
        <mxCell id="A4gkqVWS3hdwCxU_2lMh-8" value="Controller" style="rounded=0;whiteSpace=wrap;html=1;fontStyle=1;fontSize=20;fillColor=#CCFFCC;" vertex="1" parent="1">
          <mxGeometry x="720" y="370" width="120" height="60" as="geometry" />
        </mxCell>
        <mxCell id="A4gkqVWS3hdwCxU_2lMh-13" value="" style="edgeStyle=orthogonalEdgeStyle;rounded=0;orthogonalLoop=1;jettySize=auto;html=1;" edge="1" parent="1" source="A4gkqVWS3hdwCxU_2lMh-10" target="A4gkqVWS3hdwCxU_2lMh-12">
          <mxGeometry relative="1" as="geometry" />
        </mxCell>
        <mxCell id="A4gkqVWS3hdwCxU_2lMh-10" value="Service" style="rounded=0;whiteSpace=wrap;html=1;fontStyle=1;fontSize=20;fillColor=#CCFFCC;" vertex="1" parent="1">
          <mxGeometry x="880" y="370" width="120" height="60" as="geometry" />
        </mxCell>
        <mxCell id="A4gkqVWS3hdwCxU_2lMh-12" value="Repository" style="rounded=0;whiteSpace=wrap;html=1;fontStyle=1;fontSize=20;fillColor=#CCFFCC;" vertex="1" parent="1">
          <mxGeometry x="1040" y="370" width="120" height="60" as="geometry" />
        </mxCell>
        <mxCell id="A4gkqVWS3hdwCxU_2lMh-14" value="" style="endArrow=none;dashed=1;html=1;dashPattern=1 3;strokeWidth=4;rounded=0;fontStyle=1;fontSize=15;strokeColor=#FF0000;" edge="1" parent="1">
          <mxGeometry width="50" height="50" relative="1" as="geometry">
            <mxPoint x="700" y="520" as="sourcePoint" />
            <mxPoint x="700" y="280" as="targetPoint" />
          </mxGeometry>
        </mxCell>
      </root>
    </mxGraphModel>
  </diagram>
</mxfile>
